Land_normalized_Motion_pl07
version=1
nRows=12
nColumns=43
inDegrees=yes
endheader
time		pelvis_tilt		pelvis_list		pelvis_rotation		pelvis_tx		pelvis_ty		pelvis_tz		hip_flexion_r		hip_adduction_r		hip_rotation_r		knee_angle_r		ankle_angle_r		subtalar_angle_r		mtp_angle_r		hip_flexion_l		hip_adduction_l		hip_rotation_l		knee_angle_l		ankle_angle_l		subtalar_angle_l		mtp_angle_l		lumbar_extension		lumbar_bending		lumbar_rotation		neck_flexion		neck_lateral_bending		neck_rotation		arm_flex_r		arm_add_r		arm_rot_r		elbow_flex_r		pro_sup_r		wrist_flex_r		wrist_dev_r		hand_finger_flex_r		arm_flex_l		arm_add_l		arm_rot_l		elbow_flex_l		pro_sup_l		wrist_flex_l		wrist_dev_l		hand_finger_flex_l		
0.705000		1.166533		-7.394215		93.043831		-0.003955		1.029039		0.570132		38.164081		-7.440900		-12.699668		-19.463515		-26.255669		-1.756080		13.280321		38.768763		-7.390948		-7.835177		-19.934308		-23.764457		-5.951187		6.189213		-11.520610		2.578080		-5.172092		-32.197182		0.452383		6.392916		-82.921633		-1.022562		-72.596285		53.160687		94.698130		-17.905433		-10.937162		34.634444		-87.157092		-10.245742		-67.772835		31.537155		102.001824		-39.489427		-1.020874		78.160170		
0.707828		1.138339		-7.117907		93.019361		-0.003984		1.018488		0.565090		38.371642		-7.489419		-12.524528		-20.603948		-26.283701		-1.477472		13.443190		39.178017		-7.455609		-7.648486		-21.543062		-23.446918		-5.636465		6.240913		-11.959653		2.550189		-5.118361		-31.914459		0.603483		6.473962		-82.024108		-0.538573		-73.462474		52.300303		94.016652		-18.196442		-11.133525		34.698163		-86.410804		-9.870325		-68.034455		30.842206		101.557548		-39.736596		-1.074814		78.242741		
0.710657		1.094167		-6.786762		93.000061		-0.004030		1.007985		0.560088		38.546175		-7.558615		-12.418417		-21.791526		-26.429106		-1.250160		13.572126		39.562543		-7.499146		-7.485626		-23.201336		-23.310237		-5.400706		6.271300		-12.472048		2.502318		-5.091779		-31.742643		0.737197		6.537878		-81.145218		-0.154860		-74.096735		51.502889		93.451834		-18.497123		-11.289293		34.793123		-85.660837		-9.507138		-68.125509		30.214905		101.204291		-39.920059		-1.106699		78.327977		
0.713485		1.046933		-6.423022		92.983469		-0.004114		0.997442		0.555173		38.728782		-7.638513		-12.348238		-23.060555		-26.644009		-1.070734		13.657688		39.958479		-7.524715		-7.296910		-24.919899		-23.310948		-5.234370		6.290978		-13.044929		2.455963		-5.074288		-31.553138		0.871943		6.594510		-80.224261		0.155113		-74.612988		50.738080		92.998955		-18.810472		-11.365406		34.875104		-84.858565		-9.173353		-68.133512		29.621192		100.938801		-40.040001		-1.072693		78.385810		
0.716313		1.064643		-6.093757		92.997720		-0.004224		0.986651		0.550554		39.053831		-7.694469		-12.295401		-24.536430		-26.770921		-0.776589		13.845480		40.440794		-7.568399		-6.908586		-26.687072		-23.095544		-4.885019		6.343668		-13.693664		2.485977		-5.000487		-30.762271		1.144865		6.689987		-78.985453		0.460293		-75.338416		49.717475		92.245767		-19.308850		-11.658035		35.135713		-83.812147		-8.987194		-68.178033		28.818488		100.469576		-40.277325		-1.100406		78.498316		
0.719141		1.076310		-5.680505		93.017309		-0.004351		0.975947		0.545863		39.282265		-7.762937		-12.319230		-26.026813		-26.887861		-0.498088		14.047959		40.874735		-7.615629		-6.601329		-28.515174		-22.997114		-4.534034		6.390618		-14.408128		2.511768		-4.971791		-30.266462		1.349603		6.737766		-77.879069		0.630819		-75.677253		48.785397		91.595044		-19.728800		-12.001208		35.495783		-82.826066		-8.766916		-68.034856		28.165096		100.067112		-40.459470		-1.183225		78.631753		
0.721970		1.060051		-5.093831		93.052001		-0.004542		0.965354		0.541098		39.298134		-7.925595		-12.563293		-27.528333		-26.817752		0.299723		15.163768		41.166119		-7.674565		-6.398432		-30.483746		-22.409266		-3.754058		6.536515		-15.326783		2.535890		-4.942211		-29.724974		1.434192		6.802067		-76.944995		0.581619		-74.986776		47.455641		89.411248		-21.213766		-13.818274		38.052053		-81.943652		-8.665604		-66.904184		27.483734		98.310050		-41.184455		-2.186134		79.331478		
0.724798		1.091715		-4.686271		93.071970		-0.004685		0.954529		0.536555		39.594474		-7.966433		-12.518394		-29.165305		-26.686789		0.431837		15.565202		41.646965		-7.696167		-5.992887		-32.322710		-22.384430		-3.575545		6.570089		-16.063856		2.578973		-4.938959		-29.292895		1.700415		6.772455		-75.798122		0.576586		-74.930011		46.590902		88.678851		-21.883817		-13.988106		38.789217		-80.893831		-8.516180		-66.396195		26.841728		97.754061		-41.363066		-2.287564		79.525086		
0.727626		1.102214		-4.293705		93.090929		-0.004917		0.943532		0.532115		39.938833		-8.050024		-12.539044		-30.893851		-26.190008		0.529627		15.781325		42.190071		-7.675491		-5.559237		-34.263560		-22.067442		-3.415024		6.624611		-16.814072		2.623450		-4.920532		-28.700147		1.884538		6.779472		-74.630021		0.567145		-74.914880		45.822017		88.485542		-22.192445		-13.836606		38.980150		-79.793969		-8.343653		-66.028195		26.407160		97.629203		-41.334209		-2.186000		79.544638		
0.730455		1.135322		-3.708625		93.132984		-0.005098		0.932714		0.527575		40.059159		-8.157210		-12.663145		-32.749969		-24.785416		1.259565		16.293201		42.584685		-7.730786		-5.138235		-36.389755		-21.003629		-2.577179		6.760578		-17.781168		2.687226		-4.921431		-28.125182		2.116940		6.769127		-73.466076		0.442713		-74.573008		44.958172		88.182633		-22.609024		-14.153957		39.588150		-78.735067		-8.213834		-65.344587		26.035606		97.307336		-41.261743		-2.257098		79.516245		
0.733283		1.151899		-3.315292		93.131805		-0.005378		0.921523		0.523297		40.526119		-8.270196		-12.654947		-34.824608		-23.442077		1.569305		16.576256		43.157954		-7.708224		-4.714560		-38.462734		-19.869436		-2.400857		6.841303		-18.570175		2.754792		-4.886112		-27.450698		2.206260		6.767097		-72.307336		0.297932		-74.225125		44.213808		88.086669		-22.776669		-14.184004		39.759359		-77.579952		-8.045501		-64.865434		25.811175		97.231374		-41.147685		-2.268789		79.476451		
0.736111		1.145031		-2.844147		93.133170		-0.005598		0.910297		0.518960		40.858074		-8.410904		-12.629297		-36.936679		-20.974621		2.250886		16.989445		43.718794		-7.703720		-4.267829		-40.787363		-18.010053		-1.770518		6.940913		-19.458918		2.776905		-4.845800		-26.699229		2.384923		6.731961		-71.148587		0.095282		-73.639576		43.436556		88.018906		-22.952831		-14.419028		39.975221		-76.444877		-7.940427		-64.198728		25.617937		97.128782		-40.953531		-2.371287		79.356342		
